<svg xmlns="http://www.w3.org/2000/svg" width="109" height="33" fill="none"><path fill="#000" d="M104.976 33H4.389C2.176 33 .365 31.186.365 28.97V4.789c0-2.217 1.81-4.03 4.024-4.03h100.587c2.213 0 4.024 1.813 4.024 4.03v24.18c0 2.217-1.811 4.03-4.024 4.03"/><path fill="#A6A6A6" d="M104.976.758H4.389C2.176.758.365 2.572.365 4.788V28.97c0 2.216 1.81 4.03 4.024 4.03h100.587A4.039 4.039 0 0 0 109 28.97V4.789c0-2.217-1.811-4.03-4.024-4.03Zm0 .645a3.387 3.387 0 0 1 3.38 3.386v24.18a3.387 3.387 0 0 1-3.38 3.386H4.389a3.387 3.387 0 0 1-3.38-3.385V4.789a3.387 3.387 0 0 1 3.38-3.386h100.587"/><path fill="#fff" d="M22.18 16.756a4.4 4.4 0 0 1 .566-2.102 4.36 4.36 0 0 1 1.502-1.568 4.454 4.454 0 0 0-1.527-1.37 4.416 4.416 0 0 0-1.974-.537c-1.473-.155-2.9.889-3.651.889-.765 0-1.92-.873-3.165-.847a4.637 4.637 0 0 0-2.277.684 4.683 4.683 0 0 0-1.646 1.727c-1.697 2.96-.431 7.309 1.194 9.7.813 1.172 1.763 2.48 3.006 2.434 1.216-.05 1.67-.782 3.14-.782 1.454 0 1.88.782 3.149.753 1.305-.022 2.128-1.177 2.912-2.36a9.716 9.716 0 0 0 1.332-2.733 4.202 4.202 0 0 1-1.86-1.555 4.25 4.25 0 0 1-.7-2.333Zm-2.395-7.15a4.328 4.328 0 0 0 .977-3.085 4.337 4.337 0 0 0-2.813 1.467 4.107 4.107 0 0 0-1.003 2.97 3.573 3.573 0 0 0 2.839-1.352Zm16.992 13.312h-3.993l-.958 2.853h-1.692l3.782-10.554h1.757l3.782 10.554h-1.72l-.958-2.853Zm-3.58-1.316h3.165l-1.56-4.63h-.043l-1.561 4.63Zm14.424.322c0 2.391-1.27 3.928-3.187 3.928a2.573 2.573 0 0 1-1.393-.326 2.6 2.6 0 0 1-1.01-1.02h-.035v3.81h-1.568v-10.24h1.517v1.28h.03a2.692 2.692 0 0 1 2.431-1.36c1.938 0 3.215 1.544 3.215 3.928Zm-1.61 0c0-1.558-.8-2.582-2.019-2.582-1.198 0-2.003 1.046-2.003 2.582 0 1.55.805 2.589 2.003 2.589 1.22 0 2.018-1.017 2.018-2.589Zm10.015 0c0 2.391-1.27 3.928-3.187 3.928a2.573 2.573 0 0 1-1.393-.326 2.6 2.6 0 0 1-1.01-1.02H50.4v3.81h-1.567v-10.24h1.517v1.28h.029c.245-.427.601-.78 1.03-1.019.427-.24.912-.357 1.401-.341 1.938 0 3.216 1.544 3.216 3.928Zm-1.611 0c0-1.558-.8-2.582-2.018-2.582-1.198 0-2.003 1.046-2.003 2.582 0 1.55.805 2.589 2.003 2.589 1.219 0 2.018-1.017 2.018-2.589Zm7.166.906c.116 1.047 1.125 1.734 2.503 1.734 1.322 0 2.272-.687 2.272-1.63 0-.82-.573-1.31-1.93-1.647l-1.358-.33c-1.923-.467-2.816-1.374-2.816-2.844 0-1.821 1.575-3.072 3.81-3.072 2.214 0 3.731 1.25 3.783 3.072h-1.583c-.094-1.054-.959-1.69-2.221-1.69-1.263 0-2.127.644-2.127 1.58 0 .746.552 1.185 1.902 1.521l1.154.286c2.149.512 3.04 1.382 3.04 2.926 0 1.974-1.56 3.211-4.042 3.211-2.323 0-3.89-1.208-3.992-3.117h1.605Zm9.814-6.575v1.821h1.453v1.251h-1.453v4.242c0 .66.291.966.93.966.172-.003.344-.015.515-.036v1.243a4.273 4.273 0 0 1-.87.073c-1.546 0-2.15-.585-2.15-2.077v-4.411h-1.11v-1.25h1.11v-1.822h1.575Zm2.293 5.67c0-2.422 1.415-3.944 3.621-3.944 2.215 0 3.623 1.522 3.623 3.943 0 2.428-1.401 3.942-3.623 3.942-2.22 0-3.621-1.514-3.621-3.942Zm5.647 0c0-1.662-.755-2.642-2.026-2.642-1.27 0-2.025.988-2.025 2.641 0 1.668.755 2.64 2.025 2.64s2.026-.972 2.026-2.64Zm2.89-3.849h1.494v1.31h.037c.1-.41.338-.77.673-1.024a1.812 1.812 0 0 1 1.163-.366c.181-.001.361.019.537.059v1.477a2.177 2.177 0 0 0-.704-.096 1.57 1.57 0 0 0-1.22.507 1.593 1.593 0 0 0-.413 1.264v4.564h-1.568v-7.695Zm11.131 5.435c-.21 1.397-1.56 2.355-3.288 2.355-2.221 0-3.6-1.5-3.6-3.905 0-2.414 1.386-3.98 3.534-3.98 2.113 0 3.442 1.463 3.442 3.796v.541H88.05v.096a2.018 2.018 0 0 0 .54 1.557 1.988 1.988 0 0 0 1.514.622c.37.035.743-.051 1.06-.246.318-.195.565-.488.704-.836h1.488Zm-5.298-2.297h3.817a1.865 1.865 0 0 0-.513-1.388 1.837 1.837 0 0 0-1.36-.565 1.918 1.918 0 0 0-1.376.569 1.948 1.948 0 0 0-.568 1.384ZM33.002 7.272a2.211 2.211 0 0 1 1.776.696 2.247 2.247 0 0 1 .592 1.824c0 1.62-.87 2.552-2.368 2.552h-1.818V7.272h1.818Zm-1.036 4.355h.948a1.572 1.572 0 0 0 1.261-.514 1.597 1.597 0 0 0 .4-1.31 1.61 1.61 0 0 0-.406-1.301 1.586 1.586 0 0 0-1.255-.513h-.948v3.638Zm4.287-1.199a1.827 1.827 0 0 1 .46-1.392 1.8 1.8 0 0 1 1.33-.593 1.788 1.788 0 0 1 1.332.593 1.816 1.816 0 0 1 .46 1.393 1.827 1.827 0 0 1-.458 1.394 1.799 1.799 0 0 1-1.333.595 1.787 1.787 0 0 1-1.333-.595 1.817 1.817 0 0 1-.458-1.395Zm2.811 0c0-.83-.37-1.314-1.019-1.314-.651 0-1.018.485-1.018 1.314 0 .837.367 1.318 1.018 1.318.65 0 1.019-.485 1.019-1.318Zm5.533 1.916h-.778l-.785-2.819h-.06l-.78 2.819h-.77l-1.048-3.827h.76l.68 2.92h.057l.78-2.92h.72l.78 2.92h.06l.677-2.92h.75l-1.043 3.827Zm1.923-3.827h.721v.608h.056c.096-.219.256-.402.459-.524a1.13 1.13 0 0 1 .675-.158 1.227 1.227 0 0 1 .997.393 1.246 1.246 0 0 1 .318 1.03v2.478h-.75v-2.288c0-.615-.265-.921-.82-.921a.866.866 0 0 0-.674.275.879.879 0 0 0-.233.695v2.239h-.75V8.517Zm4.42-1.494h.75v5.32h-.75v-5.32Zm1.791 3.405a1.827 1.827 0 0 1 .46-1.392 1.8 1.8 0 0 1 1.332-.594 1.788 1.788 0 0 1 1.331.594 1.818 1.818 0 0 1 .46 1.393 1.828 1.828 0 0 1-.459 1.394 1.8 1.8 0 0 1-1.332.595 1.789 1.789 0 0 1-1.333-.595 1.815 1.815 0 0 1-.459-1.395Zm2.811 0c0-.83-.37-1.314-1.018-1.314-.652 0-1.018.485-1.018 1.314 0 .837.366 1.318 1.018 1.318.649 0 1.018-.485 1.018-1.318Zm1.561.833c0-.688.509-1.086 1.413-1.142l1.028-.06v-.33c0-.404-.265-.633-.777-.633-.419 0-.709.155-.792.426h-.725c.076-.658.69-1.08 1.551-1.08.953 0 1.49.478 1.49 1.287v2.615h-.722v-.538h-.06a1.282 1.282 0 0 1-1.14.6 1.14 1.14 0 0 1-.885-.289 1.157 1.157 0 0 1-.381-.856Zm2.441-.327v-.32l-.927.06c-.523.035-.76.215-.76.552 0 .345.296.545.704.545a.888.888 0 0 0 .889-.49.906.906 0 0 0 .094-.347Zm1.732-.505c0-1.21.617-1.976 1.576-1.976a1.244 1.244 0 0 1 1.165.672h.056V7.022h.75v5.322h-.719v-.605h-.06a1.322 1.322 0 0 1-1.192.668c-.966 0-1.576-.766-1.576-1.979Zm.774 0c0 .811.38 1.3 1.015 1.3.631 0 1.022-.496 1.022-1.297 0-.798-.395-1.3-1.022-1.3-.631 0-1.015.491-1.015 1.296Zm5.874 0a1.827 1.827 0 0 1 .46-1.393 1.8 1.8 0 0 1 1.33-.593 1.787 1.787 0 0 1 1.332.593 1.815 1.815 0 0 1 .46 1.393 1.827 1.827 0 0 1-.458 1.394 1.8 1.8 0 0 1-1.333.595 1.788 1.788 0 0 1-1.333-.595 1.817 1.817 0 0 1-.458-1.395Zm2.81 0c0-.83-.369-1.315-1.018-1.315-.652 0-1.018.485-1.018 1.314 0 .837.367 1.318 1.018 1.318.649 0 1.019-.485 1.019-1.318Zm1.777-1.912h.722v.608h.056c.095-.219.255-.402.459-.524a1.13 1.13 0 0 1 .674-.158 1.227 1.227 0 0 1 .997.393 1.246 1.246 0 0 1 .318 1.03v2.478h-.75v-2.288c0-.615-.265-.921-.82-.921a.866.866 0 0 0-.674.275.88.88 0 0 0-.232.695v2.239h-.75V8.517Zm7.461-.953v.97h.823v.636h-.823v1.968c0 .401.164.577.537.577.096 0 .191-.007.286-.018v.63a2.435 2.435 0 0 1-.407.038c-.834 0-1.166-.296-1.166-1.033V9.17h-.603v-.636h.603v-.97h.75Zm1.847-.541h.743v2.109h.06a1.162 1.162 0 0 1 1.158-.686 1.242 1.242 0 0 1 .986.403 1.264 1.264 0 0 1 .321 1.024v2.47h-.75V10.06c0-.611-.282-.92-.812-.92a.881.881 0 0 0-.702.26.895.895 0 0 0-.254.71v2.235h-.75V7.023Zm7.639 4.287c-.102.35-.323.653-.623.855-.301.203-.663.292-1.023.253a1.713 1.713 0 0 1-1.33-.579 1.742 1.742 0 0 1-.424-1.397 1.776 1.776 0 0 1 .422-1.402 1.753 1.753 0 0 1 1.329-.597c1.057 0 1.694.727 1.694 1.929v.264h-2.682v.042a1.017 1.017 0 0 0 .605 1.014.998.998 0 0 0 .407.082.904.904 0 0 0 .903-.464h.722Zm-2.637-1.233h1.919a.93.93 0 0 0-.563-.92.91.91 0 0 0-.372-.071.965.965 0 0 0-.912.61.984.984 0 0 0-.072.381Z"/></svg>